<?xml version="1.0" standalone="no"?>
<!DOCTYPE svg PUBLIC "-//W3C//DTD SVG 20010904//EN"
 "http://www.w3.org/TR/2001/REC-SVG-20010904/DTD/svg10.dtd">
<svg version="1.0" xmlns="http://www.w3.org/2000/svg"
 width="225.000000pt" height="225.000000pt" viewBox="0 0 225.000000 225.000000"
 preserveAspectRatio="xMidYMid meet">

<g transform="translate(0.000000,225.000000) scale(0.100000,-0.100000)"
fill="#000000" stroke="none">
<path d="M354 2071 c-98 -33 -144 -91 -169 -208 -21 -100 -21 -579 0 -651 29
-95 109 -161 226 -185 l64 -13 5 -234 c3 -160 9 -235 16 -237 19 -6 138 106
359 338 50 52 97 104 106 115 15 20 29 21 265 27 287 7 331 15 399 78 78 72
87 107 97 399 13 363 -5 470 -90 540 -19 16 -57 34 -84 40 -31 6 -250 10 -596
9 -493 0 -552 -2 -598 -18z m290 -395 c51 -21 76 -60 76 -117 0 -68 -36 -109
-103 -116 -90 -10 -142 35 -142 124 0 41 5 57 25 78 42 46 86 55 144 31z m724
-6 c69 -42 77 -137 16 -197 -28 -29 -38 -33 -86 -33 -82 0 -128 45 -128 125 0
103 108 160 198 105z m-338 -19 c52 -51 52 -125 1 -180 -24 -26 -37 -31 -74
-31 -25 0 -57 4 -71 10 -37 14 -66 67 -66 119 0 36 6 49 34 77 31 31 40 34 91
34 49 0 60 -4 85 -29z"/>
<path d="M1834 1846 c-3 -7 -4 -35 -2 -62 3 -47 4 -49 46 -64 24 -8 48 -23 53
-32 6 -10 11 -165 12 -360 2 -480 12 -461 -256 -466 -118 -2 -174 -7 -180 -15
-4 -7 -7 -61 -6 -122 2 -132 2 -135 -11 -135 -6 0 -71 61 -146 135 l-135 135
-105 0 -104 0 -47 -42 c-56 -50 -82 -80 -83 -91 0 -5 23 -6 51 -2 28 4 96 4
152 0 l102 -7 181 -179 c157 -156 185 -179 212 -179 53 0 66 38 70 213 4 170
-10 153 133 160 142 7 223 57 275 169 l29 63 3 266 c4 330 -8 510 -35 548 -42
57 -194 106 -209 67z"/>
</g>
</svg>
