<?xml version="1.0" standalone="no"?>
<!DOCTYPE svg PUBLIC "-//W3C//DTD SVG 20010904//EN"
 "http://www.w3.org/TR/2001/REC-SVG-20010904/DTD/svg10.dtd">
<svg version="1.0" xmlns="http://www.w3.org/2000/svg"
 width="40.000000pt" height="40.000000pt" viewBox="0 0 40.000000 40.000000"
 preserveAspectRatio="xMidYMid meet">

<g transform="translate(0.000000,40.000000) scale(0.100000,-0.100000)"
fill="#000000" stroke="none">
<path d="M66 323 c-3 -4 23 -36 58 -72 l66 -66 -60 -59 c-33 -32 -60 -62 -60
-67 0 -22 29 -5 82 48 l58 57 59 -58 c39 -39 65 -57 77 -54 16 3 11 12 -31 54
-88 88 -87 77 -15 149 49 50 60 66 48 70 -11 5 -35 -13 -75 -54 l-59 -61 -59
60 c-57 58 -74 68 -89 53z"/>
</g>
</svg>
